<svg width="164" height="73" viewBox="0 0 164 73" fill="none" xmlns="http://www.w3.org/2000/svg">
<rect width="164" height="73" rx="5" fill="#001542"/>
<rect x="45" y="43" width="34" height="20" fill="#F0BD27"/>
<path d="M51.6163 59.16C50.7736 59.16 50.1283 58.92 49.6803 58.44C49.243 57.96 49.0243 57.2827 49.0243 56.408V50.392C49.0243 49.5173 49.243 48.84 49.6803 48.36C50.1283 47.88 50.7736 47.64 51.6163 47.64C52.459 47.64 53.099 47.88 53.5363 48.36C53.9843 48.84 54.2083 49.5173 54.2083 50.392V51.576H52.5443V50.28C52.5443 49.5867 52.251 49.24 51.6643 49.24C51.0776 49.24 50.7843 49.5867 50.7843 50.28V56.536C50.7843 57.2187 51.0776 57.56 51.6643 57.56C52.251 57.56 52.5443 57.2187 52.5443 56.536V54.824H54.2083V56.408C54.2083 57.2827 53.9843 57.96 53.5363 58.44C53.099 58.92 52.459 59.16 51.6163 59.16ZM57.6813 47.8H60.0653L61.8893 59H60.1293L59.8093 56.776V56.808H57.8093L57.4893 59H55.8573L57.6813 47.8ZM59.6013 55.288L58.8173 49.752H58.7853L58.0173 55.288H59.6013ZM63.8032 47.8H68.4592V49.4H65.5632V52.52H67.8352V54.12H65.5632V59H63.8032V47.8ZM70.3632 47.8H75.1632V49.4H72.1232V52.36H74.5392V53.96H72.1232V57.4H75.1632V59H70.3632V47.8ZM72.9232 45.208H74.8432L73.1312 47.048H71.8032L72.9232 45.208Z" fill="#001542"/>
<path d="M59.6443 22.08V39H54.9403V32.208H49.2043V39H44.5003V22.08H49.2043V28.44H54.9403V22.08H59.6443ZM78.5082 39H73.8042L67.5402 29.544V39H62.8362V22.08H67.5402L73.8042 31.656V22.08H78.5082V39Z" fill="#F0BD27"/>
<path d="M88 22.0258H114.121V52.0001C114.121 55.3138 111.435 58.0001 108.121 58.0001H94C90.6863 58.0001 88 55.3138 88 52.0001V22.0258Z" fill="#F0BD27"/>
<rect x="88" y="60" width="33" height="3" fill="#F44B24"/>
<path d="M112.487 29.9982H120V46.0459H112.487" stroke="#F0BD27" stroke-width="3" stroke-linecap="round" stroke-linejoin="round"/>
<path fill-rule="evenodd" clip-rule="evenodd" d="M101 44L96.2977 46.4721L97.1958 41.2361L93.3915 37.5279L98.6489 36.7639L101 32L103.351 36.7639L108.608 37.5279L104.804 41.2361L105.702 46.4721L101 44Z" fill="#001542"/>
<path d="M101.061 10.4625V17.863" stroke="#F0BD27" stroke-width="2" stroke-linecap="round"/>
<path d="M89.3512 12.5044L93.8289 17.7373" stroke="#F0BD27" stroke-width="2" stroke-linecap="round"/>
<path d="M112.826 12.5043L108.348 17.7372" stroke="#F0BD27" stroke-width="2" stroke-linecap="round"/>
</svg>
